<mxfile host="Electron" modified="2023-11-04T20:51:50.669Z" agent="Mozilla/5.0 (Windows NT 10.0; Win64; x64) AppleWebKit/537.36 (KHTML, like Gecko) draw.io/21.6.8 Chrome/114.0.5735.289 Electron/25.5.0 Safari/537.36" etag="MUfi2lU3axFUSKDDDE_B" version="21.6.8" type="device">
  <diagram name="Page-1" id="TjDUIASD-9hMt12aED-R">
    <mxGraphModel dx="792" dy="1235" grid="1" gridSize="10" guides="1" tooltips="1" connect="1" arrows="1" fold="1" page="1" pageScale="1" pageWidth="1169" pageHeight="1654" math="0" shadow="0">
      <root>
        <mxCell id="0" />
        <mxCell id="1" parent="0" />
        <mxCell id="e4NbSqC2nf3NrUT5T8LF-1" value="&lt;span style=&quot;font-weight: 400;&quot;&gt;&amp;lt;&amp;lt;control&amp;gt;&amp;gt;&lt;br&gt;ReceivingHitControl&lt;br&gt;&lt;/span&gt;" style="swimlane;fontStyle=1;align=center;verticalAlign=top;childLayout=stackLayout;horizontal=1;startSize=40;horizontalStack=0;resizeParent=1;resizeParentMax=0;resizeLast=0;collapsible=1;marginBottom=0;whiteSpace=wrap;html=1;" vertex="1" parent="1">
          <mxGeometry x="335" y="540" width="300" height="200" as="geometry" />
        </mxCell>
        <mxCell id="e4NbSqC2nf3NrUT5T8LF-2" value="- GameStateControl&amp;amp;&lt;br&gt;- GameData&amp;amp;&lt;br&gt;- SoundControl&amp;amp;&lt;br&gt;" style="text;strokeColor=none;fillColor=none;align=left;verticalAlign=top;spacingLeft=4;spacingRight=4;overflow=hidden;rotatable=0;points=[[0,0.5],[1,0.5]];portConstraint=eastwest;whiteSpace=wrap;html=1;" vertex="1" parent="e4NbSqC2nf3NrUT5T8LF-1">
          <mxGeometry y="40" width="300" height="60" as="geometry" />
        </mxCell>
        <mxCell id="e4NbSqC2nf3NrUT5T8LF-3" value="" style="line;strokeWidth=1;fillColor=none;align=left;verticalAlign=middle;spacingTop=-1;spacingLeft=3;spacingRight=3;rotatable=0;labelPosition=right;points=[];portConstraint=eastwest;strokeColor=inherit;" vertex="1" parent="e4NbSqC2nf3NrUT5T8LF-1">
          <mxGeometry y="100" width="300" height="8" as="geometry" />
        </mxCell>
        <mxCell id="e4NbSqC2nf3NrUT5T8LF-4" value="+ void hitReceived(playerNum, teamNum, damage)&lt;br&gt;+ void hitReceived(ShootMessage_t)&lt;br&gt;+ void init()&lt;br&gt;+ void disable()" style="text;strokeColor=none;fillColor=none;align=left;verticalAlign=top;spacingLeft=4;spacingRight=4;overflow=hidden;rotatable=0;points=[[0,0.5],[1,0.5]];portConstraint=eastwest;whiteSpace=wrap;html=1;" vertex="1" parent="e4NbSqC2nf3NrUT5T8LF-1">
          <mxGeometry y="108" width="300" height="92" as="geometry" />
        </mxCell>
      </root>
    </mxGraphModel>
  </diagram>
</mxfile>
